<?xml version="1.0" standalone="no"?>
<svg version="1.0" xmlns="http://www.w3.org/2000/svg"
 width="100" height="100" viewBox="0 0 240.000000 246.000000">
<g transform="translate(0.000000,246.000000) scale(0.100000,-0.100000)"
fill="#000000" stroke="none">
<path d="M520 2165 c0 -234 120 -476 304 -612 l58 -43 -186 0 -186 0 2 -161 3
-161 178 0 c97 0 177 -3 176 -7 0 -3 -26 -25 -59 -48 -161 -115 -273 -336
-287 -566 l-6 -97 150 0 150 0 16 80 c22 113 64 198 134 270 33 33 64 60 71
60 9 0 12 -53 12 -210 l0 -210 160 0 160 0 2 217 3 217 62 -58 c79 -73 136
-180 154 -291 l12 -75 154 0 154 0 -5 43 c-3 23 -8 71 -11 107 -9 87 -56 231
-102 309 -46 77 -146 187 -202 221 -22 14 -41 28 -41 32 0 4 81 6 180 5 l180
-2 0 163 0 162 -187 0 -188 0 51 34 c66 45 159 147 207 227 46 78 93 222 102
309 3 36 8 84 11 108 l5 42 -153 0 -154 0 -16 -85 c-22 -119 -58 -186 -142
-270 l-71 -70 -3 213 -2 212 -160 0 -160 0 0 -205 c0 -138 -3 -205 -11 -205
-5 0 -34 23 -63 50 -80 76 -142 207 -148 312 l-3 48 -152 0 -153 0 0 -65z"/>
<path d="M682 290 l3 -140 33 -32 c31 -31 37 -33 115 -36 69 -3 87 0 115 18
50 31 62 71 62 210 l0 120 -55 0 -55 0 0 -119 c0 -132 -8 -151 -59 -151 -46 0
-51 14 -51 147 l0 123 -56 0 -56 0 4 -140z"/>
<path d="M1050 385 l0 -45 55 0 55 0 0 -130 0 -130 55 0 55 0 0 130 0 130 55
0 55 0 0 45 0 45 -165 0 -165 0 0 -45z"/>
<path d="M1420 256 l0 -176 50 0 49 0 3 93 3 92 63 -92 63 -93 49 0 50 0 0
175 0 175 -50 0 -49 0 -3 -91 -3 -91 -60 88 -60 89 -52 3 -53 3 0 -175z"/>
</g>
</svg>
